<svg width="320" height="320" viewBox="0 0 320 320" fill="none" xmlns="http://www.w3.org/2000/svg">
<g id="Logos &#194;&#183; Display">
<g id="logo&#194;&#183;square_flat">
<g id="logo&#194;&#183;square_flat_2">
<path id="Vector" d="M145.436 89.4677H227.816L194.71 147.02H176.759L203.75 103.219L154.729 103.347L145.436 89.4677Z" fill="#5B616E"/>
<path id="Vector_2" d="M88.9025 105.511H145.436L154.985 121.043H98.0703L88.9025 105.511Z" fill="#5B616E"/>
<path id="Vector_3" d="M171.632 113.277L142.37 159.906L120.99 126.264H102.017L141.742 188.781L189.905 113.274L171.632 113.277Z" fill="#F59E0B"/>
<path id="Vector_4" d="M173.574 152.874L147.728 196.421L156.259 210.045L191.272 152.874H173.574Z" fill="#5B616E"/>
<path id="Vector_5" d="M73.3521 231.859L79.9938 244.746H80.2623L86.904 231.859H90.7947L82.2077 247.682H78.0484L69.4583 231.859H73.3521Z" fill="#5B616E"/>
<path id="Vector_6" d="M103.741 231.859V247.682H100.141V231.859H103.741Z" fill="#5B616E"/>
<path id="Vector_7" d="M135.625 239.769C135.625 241.458 135.16 242.91 134.226 244.122C133.293 245.333 132.019 246.267 130.398 246.92C128.777 247.572 126.938 247.897 124.881 247.897C122.823 247.897 120.971 247.572 119.35 246.92C117.73 246.267 116.456 245.333 115.522 244.119C114.589 242.904 114.123 241.452 114.123 239.769C114.123 238.086 114.589 236.628 115.522 235.416C116.456 234.204 117.73 233.271 119.35 232.618C120.971 231.966 122.813 231.641 124.881 231.641C126.948 231.641 128.777 231.966 130.398 232.618C132.019 233.271 133.293 234.201 134.226 235.416C135.16 236.628 135.625 238.08 135.625 239.769ZM132.059 239.769C132.059 238.482 131.747 237.396 131.123 236.512C130.498 235.628 129.642 234.96 128.559 234.504C127.475 234.048 126.248 233.82 124.884 233.82C123.519 233.82 122.279 234.048 121.202 234.504C120.122 234.96 119.269 235.628 118.645 236.512C118.02 237.396 117.708 238.482 117.708 239.769C117.708 241.055 118.02 242.142 118.645 243.026C119.269 243.909 120.122 244.578 121.202 245.034C122.283 245.489 123.51 245.717 124.884 245.717C126.258 245.717 127.475 245.489 128.559 245.034C129.642 244.578 130.498 243.909 131.123 243.026C131.747 242.142 132.059 241.055 132.059 239.769Z" fill="#5B616E"/>
<path id="Vector_8" d="M146.008 247.682V231.859H154.514C156.362 231.859 157.899 232.072 159.123 232.493C160.347 232.915 161.262 233.499 161.867 234.242C162.473 234.985 162.776 235.844 162.776 236.818C162.776 237.792 162.47 238.639 161.861 239.372C161.252 240.106 160.334 240.678 159.11 241.084C157.886 241.489 156.35 241.696 154.501 241.696H148.056V239.641H154.173C155.338 239.641 156.287 239.532 157.021 239.31C157.755 239.088 158.292 238.767 158.635 238.345C158.976 237.923 159.148 237.415 159.148 236.824C159.148 236.234 158.976 235.71 158.629 235.272C158.283 234.835 157.742 234.498 157.009 234.264C156.275 234.03 155.313 233.914 154.123 233.914H149.602V247.691H146.002L146.008 247.682ZM157.789 240.543L163.685 247.682H159.582L153.802 240.543H157.786H157.789Z" fill="#5B616E"/>
<path id="Vector_9" d="M175.094 247.682H171.272L179.863 231.859H184.022L192.609 247.682H188.787L182.039 234.732H181.852L175.091 247.682H175.094ZM175.735 241.486H188.134V243.494H175.735V241.486Z" fill="#5B616E"/>
<path id="Vector_10" d="M221.218 231.859V247.682H217.908L205.777 236.078H205.555V247.682H201.955V231.859H205.286L217.43 243.479H217.652V231.859H221.218Z" fill="#5B616E"/>
<path id="Vector_11" d="M231.191 233.914V231.859H249.661V233.914H242.214V247.682H238.623V233.914H231.188H231.191Z" fill="#5B616E"/>
</g>
</g>
</g>
</svg>
