<svg width="378" height="110" viewBox="0 0 378 110" fill="none" xmlns="http://www.w3.org/2000/svg">
<g id="Logos &#194;&#183; Display">
<g id="logo&#194;&#183;horiz_white_onblk">
<g id="logo&#194;&#183;horiz_white_onblk_2">
<path id="Vector_2" d="M76.2477 17.707H127.202L106.725 53.3089H95.62L112.317 26.2141L81.9953 26.2915L76.2477 17.707Z" fill="white"/>
<path id="Vector_3" d="M41.2795 27.6326H76.2477L82.1537 37.2414H46.9497L41.2795 27.6326Z" fill="white"/>
<path id="Vector_4" d="M92.4514 32.437L74.3502 61.2781L61.1234 40.4689H49.3887L73.9634 79.1399L103.751 32.4333L92.4514 32.437Z" fill="white"/>
<path id="Vector_5" d="M93.6525 56.9306L77.6661 83.8669L82.9421 92.293L104.599 56.9306H93.6525Z" fill="white"/>
<path id="Vector_6" d="M128.26 45.6675L136.096 60.8729H136.413L144.25 45.6675H148.84L138.708 64.3362H133.801L123.665 45.6675H128.26Z" fill="white"/>
<path id="Vector_7" d="M164.119 45.6675V64.3362H159.871V45.6675H164.119Z" fill="white"/>
<path id="Vector_8" d="M201.74 55C201.74 56.9932 201.191 58.7064 200.09 60.136C198.988 61.5655 197.485 62.6671 195.573 63.4371C193.661 64.2072 191.491 64.5903 189.063 64.5903C186.635 64.5903 184.45 64.2072 182.538 63.4371C180.625 62.6671 179.122 61.5655 178.021 60.1323C176.919 58.6991 176.37 56.9858 176.37 55C176.37 53.0141 176.919 51.2935 178.021 49.864C179.122 48.4345 180.625 47.3328 182.538 46.5628C184.45 45.7928 186.623 45.4096 189.063 45.4096C191.502 45.4096 193.661 45.7928 195.573 46.5628C197.485 47.3328 198.988 48.4308 200.09 49.864C201.191 51.2935 201.74 53.0067 201.74 55ZM197.533 55C197.533 53.482 197.164 52.1999 196.428 51.1572C195.691 50.1145 194.681 49.3261 193.403 48.7882C192.124 48.2502 190.676 47.9813 189.066 47.9813C187.456 47.9813 185.993 48.2502 184.722 48.7882C183.448 49.3261 182.442 50.1145 181.705 51.1572C180.968 52.1999 180.6 53.482 180.6 55C180.6 56.5179 180.968 57.8001 181.705 58.8428C182.442 59.8854 183.448 60.6739 184.722 61.2118C185.997 61.7497 187.445 62.0187 189.066 62.0187C190.687 62.0187 192.124 61.7497 193.403 61.2118C194.681 60.6739 195.691 59.8854 196.428 58.8428C197.164 57.8001 197.533 56.5179 197.533 55Z" fill="white"/>
<path id="Vector_9" d="M213.991 64.3361V45.6675H224.027C226.208 45.6675 228.021 45.9181 229.465 46.4155C230.909 46.9129 231.989 47.6018 232.704 48.4787C233.418 49.3556 233.776 50.3688 233.776 51.5183C233.776 52.6678 233.415 53.6663 232.696 54.5321C231.978 55.3979 230.895 56.0722 229.45 56.5511C228.006 57.0301 226.193 57.2732 224.012 57.2732H216.408V54.8489H223.625C225 54.8489 226.12 54.72 226.986 54.4584C227.851 54.1968 228.485 53.8173 228.89 53.3199C229.292 52.8226 229.495 52.222 229.495 51.5257C229.495 50.8293 229.292 50.2103 228.883 49.6945C228.474 49.1787 227.837 48.7808 226.971 48.5045C226.105 48.2282 224.97 48.0918 223.566 48.0918H218.232V64.3472H213.983L213.991 64.3361ZM227.892 55.9137L234.848 64.3361H230.007L223.187 55.9137H227.888H227.892Z" fill="white"/>
<path id="Vector_10" d="M248.307 64.3362H243.797L253.933 45.6675H258.84L268.972 64.3362H264.463L256.501 49.0571H256.28L248.303 64.3362H248.307ZM249.066 57.0264H263.696V59.3954H249.066V57.0264Z" fill="white"/>
<path id="Vector_11" d="M302.732 45.6675V64.3362H298.827L284.513 50.6451H284.251V64.3362H280.003V45.6675H283.935L298.263 59.377H298.525V45.6675H302.732Z" fill="white"/>
<path id="Vector_12" d="M314.5 48.0918V45.6675H336.293V48.0918H327.506V64.3362H323.269V48.0918H314.496H314.5Z" fill="white"/>
</g>
</g>
</g>
</svg>
