<svg id="Layer_1" xmlns="http://www.w3.org/2000/svg" viewBox="0 0 1024.8 298.56"><polygon points="206.95 48.06 345.25 48.06 289.67 144.69 259.53 144.69 304.85 71.15 222.55 71.36 206.95 48.06" style="fill:#5b616e;"/><polygon points="112.04 75 206.95 75 222.98 101.08 127.43 101.08 112.04 75" style="fill:#5b616e;"/><polygon points="250.93 88.04 201.8 166.32 165.9 109.84 134.05 109.84 200.75 214.8 281.6 88.03 250.93 88.04" style="fill:#f59e0b;"/><polygon points="254.19 154.52 210.8 227.63 225.12 250.5 283.9 154.52 254.19 154.52" style="fill:#5b616e;"/><path d="M348.12,123.95l21.27,41.27h.86l21.27-41.27h12.46l-27.5,50.67h-13.32l-27.51-50.67h12.47Z" style="fill:#5b616e;"/><path d="M445.45,123.95v50.67h-11.53v-50.67h11.53Z" style="fill:#5b616e;"/><path d="M547.56,149.28c0,5.41-1.49,10.06-4.48,13.94-2.99,3.88-7.07,6.87-12.26,8.96-5.19,2.09-11.08,3.13-17.67,3.13s-12.52-1.04-17.71-3.13c-5.19-2.09-9.27-5.08-12.26-8.97-2.99-3.89-4.48-8.54-4.48-13.93s1.49-10.06,4.48-13.94c2.99-3.88,7.07-6.87,12.26-8.96,5.19-2.09,11.09-3.13,17.71-3.13s12.48,1.04,17.67,3.13c5.19,2.09,9.27,5.07,12.26,8.96,2.99,3.88,4.48,8.53,4.48,13.94ZM536.14,149.28c0-4.12-1-7.6-3-10.43-2-2.83-4.74-4.97-8.21-6.43-3.47-1.46-7.4-2.19-11.77-2.19s-8.34.73-11.79,2.19c-3.46,1.46-6.19,3.6-8.19,6.43-2,2.83-3,6.31-3,10.43s1,7.6,3,10.43c2,2.83,4.73,4.97,8.19,6.43,3.46,1.46,7.39,2.19,11.79,2.19s8.3-.73,11.77-2.19c3.47-1.46,6.21-3.6,8.21-6.43,2-2.83,3-6.31,3-10.43Z" style="fill:#5b616e;"/><path d="M580.81,174.62v-50.67h27.24c5.92,0,10.84.68,14.76,2.03,3.92,1.35,6.85,3.22,8.79,5.6,1.94,2.38,2.91,5.13,2.91,8.25s-.98,5.83-2.93,8.18c-1.95,2.35-4.89,4.18-8.81,5.48-3.92,1.3-8.84,1.96-14.76,1.96h-20.64v-6.58h19.59c3.73,0,6.77-.35,9.12-1.06,2.35-.71,4.07-1.74,5.17-3.09,1.09-1.35,1.64-2.98,1.64-4.87s-.55-3.57-1.66-4.97c-1.11-1.4-2.84-2.48-5.19-3.23-2.35-.75-5.43-1.12-9.24-1.12h-14.48v44.12h-11.53ZM618.54,151.76l18.88,22.86h-13.14l-18.51-22.86h12.76Z" style="fill:#5b616e;"/><path d="M673.95,174.62h-12.24l27.51-50.67h13.32l27.5,50.67h-12.24l-21.61-41.47h-.6l-21.65,41.47ZM676.01,154.78h39.71v6.43h-39.71v-6.43Z" style="fill:#5b616e;"/><path d="M821.67,123.95v50.67h-10.6l-38.85-37.16h-.71v37.16h-11.53v-50.67h10.67l38.89,37.21h.71v-37.21h11.42Z" style="fill:#5b616e;"/><path d="M853.61,130.53v-6.58h59.15v6.58h-23.85v44.09h-11.5v-44.09h-23.81Z" style="fill:#5b616e;"/></svg>